<?xml version="1.0" encoding="iso-8859-1"?>
<!-- Generator: Adobe Illustrator 19.0.0, SVG Export Plug-In . SVG Version: 6.00 Build 0)  -->
<svg version="1.1" id="Capa_1" xmlns="http://www.w3.org/2000/svg" xmlns:xlink="http://www.w3.org/1999/xlink" x="0px" y="0px"
	 viewBox="0 0 480 480" style="enable-background:new 0 0 480 480;" xml:space="preserve">
<g>
	<g>
		<path d="M451.68,264c7.907-8.786,12.293-20.18,12.32-32c0-26.51-21.49-48-48-48h-2.16c6.613-9.36,10.162-20.54,10.16-32
			c0-30.928-25.072-56-56-56c-8.887-0.023-17.646,2.118-25.52,6.24c4.88-3.76,12.56-10.56,7.52-19.6
			c-5.04-9.04-16.64-7.28-22.56-5.76c-2.569,0.882-5.29,1.236-8,1.04c-0.237-1.779-0.237-3.581,0-5.36
			c1.693-7.193-0.668-14.736-6.16-19.68c-6.158-4.049-14.025-4.447-20.56-1.04c-1.686,0.772-3.507,1.206-5.36,1.28
			c-0.005-1.727,0.21-3.447,0.64-5.12c1.698-7.169-0.667-14.691-6.16-19.6c-6.101-4.112-13.967-4.542-20.48-1.12
			c-1.662,0.771-3.452,1.232-5.28,1.36c-1.035-2.792-1.576-5.743-1.6-8.72C253.92,13.28,252.8,0,240,0s-13.92,13.36-14.48,19.76
			c0.108,2.981-0.41,5.951-1.52,8.72c-1.764-0.199-3.489-0.658-5.12-1.36c-6.535-3.407-14.402-3.009-20.56,1.04
			c-5.623,4.929-8.056,12.566-6.32,19.84c0.377,1.821,0.377,3.699,0,5.52c-1.768-0.18-3.496-0.639-5.12-1.36
			c-6.535-3.407-14.402-3.009-20.56,1.04c-5.451,4.837-7.867,12.239-6.32,19.36c0.325,1.799,0.325,3.641,0,5.44
			c-2.526,0.057-5.043-0.322-7.44-1.12c-5.92-1.44-17.04-4.24-22.56,5.76c-2.169,3.62-2.169,8.14,0,11.76
			c-10.845-4.199-22.37-6.368-34-6.4H0v96c0.024,32.197,16.186,62.238,43.04,80H0v8c0.018,87.914,64.907,162.332,152,174.32V480h176
			v-33.68c87.093-11.988,151.982-86.406,152-174.32v-8H451.68z M416,200c17.673,0,32,14.327,32,32s-14.327,32-32,32
			c-17.673,0-32-14.327-32-32S398.327,200,416,200z M368,112c22.091,0,40,17.909,40,40s-17.909,40-40,40c-22.091,0-40-17.909-40-40
			S345.909,112,368,112z M372,251.12c1.978,4.685,4.678,9.03,8,12.88h-16.32C367.116,260.173,369.924,255.826,372,251.12z
			 M369.44,207.92c1.84,0,3.6,0,5.36,0c-1.029,1.598-1.964,3.254-2.8,4.96C371.259,211.171,370.403,209.514,369.44,207.92z M360,232
			c0,17.673-14.327,32-32,32c-17.673,0-32-14.327-32-32s14.327-32,32-32C345.673,200,360,214.327,360,232z M169.68,90.64
			c5.552-4.873,7.979-12.402,6.32-19.6c-0.375-1.821-0.375-3.699,0-5.52c1.772,0.205,3.501,0.691,5.12,1.44
			c6.535,3.407,14.402,3.009,20.56-1.04c5.52-4.928,7.939-12.459,6.32-19.68c-0.415-1.817-0.415-3.703,0-5.52
			c1.791,0.242,3.54,0.726,5.2,1.44c6.513,3.422,14.379,2.992,20.48-1.12c3.128-2.465,5.351-5.897,6.32-9.76
			c0.932,3.839,3.096,7.267,6.16,9.76c6.158,4.049,14.025,4.447,20.56,1.04c1.65-0.784,3.453-1.194,5.28-1.2
			c0.238,1.779,0.238,3.581,0,5.36c-1.68,7.168,0.682,14.682,6.16,19.6c6.127,4.052,13.974,4.451,20.48,1.04
			c1.707-0.782,3.562-1.192,5.44-1.2c0.278,1.776,0.278,3.584,0,5.36c-1.644,7.167,0.712,14.662,6.16,19.6
			c5.211,3.539,11.761,4.484,17.76,2.56c-4.639,3.078-7.592,8.128-8,13.68c-0.028,3.832,1.571,7.495,4.4,10.08
			c-15.587,19.384-16.404,46.762-2,67.04c-16.323,1.955-30.51,12.127-37.6,26.96c-2.37,0.428-4.612,1.385-6.56,2.8
			c-5.606,5.008-8.004,12.693-6.24,20c0.415,1.817,0.415,3.703,0,5.52c-1.791-0.242-3.54-0.726-5.2-1.44
			c-6.513-3.422-14.379-2.992-20.48,1.12c-3.128,2.465-5.351,5.897-6.32,9.76c-0.932-3.839-3.096-7.267-6.16-9.76
			c-6.158-4.049-14.025-4.447-20.56-1.04c-1.674,0.796-3.506,1.206-5.36,1.2c-0.238-1.779-0.238-3.581,0-5.36
			c1.68-7.168-0.682-14.682-6.16-19.6c-2.807-2.141-6.23-3.32-9.76-3.36V184c0.009-8.102-1.039-16.17-3.12-24L232,203.28V216
			c0,4.418,3.582,8,8,8s8-3.582,8-8v-12.72l45.68-45.6c3.137-3.137,3.137-8.223,0-11.36c-3.137-3.137-8.223-3.137-11.36,0
			L248,180.72v-25.44l37.68-37.6c3.137-3.137,3.137-8.223,0-11.36c-3.137-3.137-8.223-3.137-11.36,0L248,132.72v-25.44l21.68-21.6
			c3.137-3.137,3.137-8.223,0-11.36c-3.137-3.137-8.223-3.137-11.36,0L248,84.72V64c0-4.418-3.582-8-8-8s-8,3.582-8,8v20.72
			l-10.32-10.4c-3.137-3.137-8.223-3.137-11.36,0s-3.137,8.223,0,11.36l21.68,21.6v25.44l-26.32-26.4
			c-3.137-3.137-8.223-3.137-11.36,0s-3.137,8.223,0,11.36l37.68,37.6v25.44l-34.32-34.4c-3.111-3.137-8.177-3.158-11.314-0.046
			c-0.016,0.015-0.031,0.031-0.046,0.046c-0.5,0.616-0.93,1.287-1.28,2c-5.661-13.999-14.573-26.449-26-36.32
			c0.621-1.553,0.946-3.208,0.96-4.88c-0.383-5.624-3.334-10.758-8-13.92C157.971,95.134,164.502,94.189,169.68,90.64z M256,251.52
			c1.77,0.166,3.501,0.625,5.12,1.36c6.577,3.471,14.524,3.072,20.72-1.04l1.76-1.68c2.078,5.086,5.029,9.77,8.72,13.84h-38.24
			c0-1.36,0-2.64,0.4-3.76C254.372,257.259,254.89,254.289,256,251.52z M198.24,251.84c6.101,4.112,13.967,4.542,20.48,1.12
			c1.662-0.771,3.452-1.232,5.28-1.36c1.035,2.792,1.576,5.743,1.6,8.72c0,1.04,0,2.32,0.4,3.68h-34v-23.52
			C192.385,244.977,194.651,249.103,198.24,251.84z M192,232v-5.12C192.216,228.58,192.216,230.3,192,232z M16,184v-80h80
			c44.183,0,80,35.817,80,80v80H96C51.817,264,16,228.183,16,184z M312,464H168v-16h144V464z M304,432H176
			c-85.333,0.107-155.733-66.773-160-152h448C459.733,365.227,389.333,432.107,304,432z"/>
	</g>
</g>
<g>
	<g>
		<path d="M149.84,234.16l-104-111.6c-2.783-3.432-7.821-3.958-11.253-1.175c-3.432,2.783-3.958,7.821-1.175,11.253
			c0.231,0.284,0.48,0.552,0.748,0.803l104,112c3.12,3.102,8.16,3.102,11.28,0C152.655,242.431,152.834,237.389,149.84,234.16z"/>
	</g>
</g>
<g>
	<g>
		<path d="M48,176H32c-4.418,0-8,3.582-8,8s3.582,8,8,8h16c4.418,0,8-3.582,8-8S52.418,176,48,176z"/>
	</g>
</g>
<g>
	<g>
		<path d="M96,112c-4.418,0-8,3.582-8,8v16c0,4.418,3.582,8,8,8s8-3.582,8-8v-16C104,115.582,100.418,112,96,112z"/>
	</g>
</g>
<g>
	<g>
		<path d="M128,152c-4.418,0-8,3.582-8,8v16c0,4.418,3.582,8,8,8s8-3.582,8-8v-16C136,155.582,132.418,152,128,152z"/>
	</g>
</g>
<g>
	<g>
		<path d="M80,216H64c-4.418,0-8,3.582-8,8s3.582,8,8,8h16c4.418,0,8-3.582,8-8S84.418,216,80,216z"/>
	</g>
</g>
<g>
</g>
<g>
</g>
<g>
</g>
<g>
</g>
<g>
</g>
<g>
</g>
<g>
</g>
<g>
</g>
<g>
</g>
<g>
</g>
<g>
</g>
<g>
</g>
<g>
</g>
<g>
</g>
<g>
</g>
</svg>
