<?xml version="1.0" encoding="UTF-8"?>
<svg width="30px" height="27px" viewBox="0 0 30 27" version="1.1" xmlns="http://www.w3.org/2000/svg" xmlns:xlink="http://www.w3.org/1999/xlink">
    <!-- Generator: sketchtool 55.2 (78181) - https://sketchapp.com -->
    <title>B403E913-15C6-4249-B2FF-EA47010E646A</title>
    <desc>Created with sketchtool.</desc>
    <defs>
        <rect id="path-1" x="0" y="0" width="40" height="38.5714286"></rect>
    </defs>
    <g id="Page-1" stroke="none" stroke-width="1" fill="none" fill-rule="evenodd">
        <g id="AboutMe" transform="translate(-494.000000, -975.000000)">
            <g id="Hobbies/Interests" transform="translate(398.000000, 916.000000)">
                <g id="dogsImage" transform="translate(91.250000, 53.000000)">
                    <g transform="translate(0.000000, 0.000000)">
                        <mask id="mask-2" fill="white">
                            <use xlink:href="#path-1"></use>
                        </mask>
                        <g id="Mask"></g>
                        <g id="noun_Dog_1950348" mask="url(#mask-2)" fill="#000000" fill-rule="nonzero">
                            <g transform="translate(5.000000, 6.428571)">
                                <path d="M0.162537313,4.31667931 L0.50238806,5.4901716 C0.595074627,5.76810399 0.780447761,5.98427362 1.05850746,6.04603637 L4.02447761,6.84895215 C4.27164179,6.9107149 4.48791045,7.12688453 4.58059701,7.37393554 L4.88955224,8.30037682 C5.01313433,8.70183471 5.47656716,8.94888572 5.87820896,8.82536022 L10.141791,7.59010517 C10.6052239,7.43569829 10.8523881,6.9107149 10.6361194,6.47837564 L7.85552239,0.641795555 C7.70104478,0.302100418 7.29940299,0.116812162 6.92865672,0.20945629 L6.92865672,0.20945629 C6.4961194,0.302100418 6.24895522,0.734439683 6.34164179,1.16677895 L6.37253731,1.35206721 C6.46522388,1.78440647 6.18716418,2.21674574 5.75462687,2.30938986 L0.780447761,3.2975939 C0.317014925,3.39023803 0.0389552239,3.88434004 0.162537313,4.31667931 Z" id="Path"></path>
                                <path d="M5.69283582,11.6046841 L9.12223881,25.6557102 C9.2458209,26.0880495 9.61656716,26.4277446 10.08,26.4277446 L10.08,26.4277446 C10.6052239,26.4277446 11.0686567,25.9954053 11.0686567,25.4704219 L11.3467164,19.2941467 C11.3776119,18.8000447 11.7483582,18.3985868 12.2426866,18.3368241 L20.8625373,17.4721455 C21.3877612,17.4103828 21.8820896,17.7809593 21.9438806,18.3059427 L23.0561194,25.5630661 C23.1179104,26.0571681 23.5504478,26.3968632 24.0447761,26.3968632 L24.0447761,26.3968632 C24.5391045,26.3968632 24.9716418,26.0262867 25.0334328,25.5321847 L26.578209,13.3649225 C26.6091045,13.0561087 26.7944776,12.7781764 27.0725373,12.6237695 C27.9067164,12.1605488 29.6677612,10.8326497 29.7295522,8.42390233 C29.7295522,7.86803756 28.9880597,7.65186793 28.6791045,8.11508857 C28.1229851,8.91800435 27.2579104,9.81356425 25.9602985,10.1841408 C25.8676119,10.2150221 25.7440299,10.2150221 25.6204478,10.2150221 L13.6638806,9.53563187 C13.4167164,9.53563187 13.2004478,9.41210636 13.0150746,9.25769948 L12.3662687,8.60919059 C12.088209,8.3312582 11.6556716,8.23861407 11.2849254,8.39302095 L6.27985075,10.4311918 C5.81641791,10.61648 5.56925373,11.110582 5.69283582,11.6046841 Z" id="Path"></path>
                                <ellipse id="Oval" cx="3.93179104" cy="10.2767849" rx="1" ry="1"></ellipse>
                            </g>
                        </g>
                    </g>
                </g>
            </g>
        </g>
    </g>
</svg>