<?xml version="1.0" encoding="UTF-8"?>
<svg width="20px" height="20px" viewBox="0 0 20 20" version="1.1" xmlns="http://www.w3.org/2000/svg" xmlns:xlink="http://www.w3.org/1999/xlink">
    <!-- Generator: sketchtool 55.2 (78181) - https://sketchapp.com -->
    <title>BE319288-1634-4189-980A-F7A4F8B4939F</title>
    <desc>Created with sketchtool.</desc>
    <g id="Page-1" stroke="none" stroke-width="1" fill="none" fill-rule="evenodd">
        <g id="HomePage---Hover-on-project" transform="translate(-285.000000, -1204.000000)" fill="#999999" fill-rule="nonzero">
            <g id="iconLinkedin" transform="translate(285.000000, 1204.000000)">
                <path d="M20,11.6849496 L20,19.0588235 L15.7133524,19.0588235 L15.7133524,12.1788072 C15.7133524,10.450491 15.0933351,9.27098279 13.5417107,9.27098279 C12.3572423,9.27098279 11.6523644,10.0658849 11.3422627,10.8348189 C11.2291772,11.1097098 11.2000688,11.4923219 11.2000688,11.8771135 L11.2000688,19.0588235 L6.91197976,19.0588235 C6.91197976,19.0588235 6.96973149,7.40633408 6.91197976,6.19904927 L11.1996503,6.19904927 L11.1996503,8.0218708 C11.190955,8.03550405 11.1796558,8.05020385 11.1714719,8.06341976 L11.1996503,8.06341976 L11.1996503,8.0218708 C11.7693093,7.14688493 12.7866604,5.89693824 15.0638082,5.89693824 C17.8850406,5.89693824 20,7.73492329 20,11.6849496 Z M2.42645606,-2.48689958e-14 C0.959506367,-2.48689958e-14 0,0.959567679 0,2.22143187 C0,3.4557977 0.931746478,4.44448675 2.36954131,4.44448675 L2.39818468,4.44448675 C3.89354524,4.44448675 4.82352476,3.45598318 4.82352476,2.22143187 C4.79534638,0.959567679 3.89354524,-2.48689958e-14 2.42645606,-2.48689958e-14 Z M0.254674891,19.0588235 L4.54113648,19.0588235 L4.54113648,6.19904927 L0.254674891,6.19904927 L0.254674891,19.0588235 Z" id="LinkedIn"></path>
            </g>
        </g>
    </g>
</svg>