<?xml version="1.0" encoding="UTF-8"?>
<svg width="20px" height="16px" viewBox="0 0 20 16" version="1.1" xmlns="http://www.w3.org/2000/svg" xmlns:xlink="http://www.w3.org/1999/xlink">
    <!-- Generator: sketchtool 55.2 (78181) - https://sketchapp.com -->
    <title>7448A41A-581F-4636-8BB5-4CE28558E1CF</title>
    <desc>Created with sketchtool.</desc>
    <g id="Page-1" stroke="none" stroke-width="1" fill="none" fill-rule="evenodd">
        <g id="HomePage---Hover-on-project" transform="translate(-251.000000, -1208.000000)" fill="#999999" fill-rule="nonzero">
            <g id="iconEmail" transform="translate(251.000000, 1208.000000)">
                <path d="M1.91960534,4.84396074 C2.17260264,5.02249796 2.93523003,5.5527539 4.20752659,6.43445491 C5.47986224,7.31615592 6.4545586,7.99504302 7.13165476,8.47115531 C7.20604504,8.52334432 7.36409018,8.63679188 7.60586835,8.81165437 C7.84768561,8.98663414 8.04861364,9.12803312 8.20849605,9.2358904 C8.36849574,9.34370859 8.56191828,9.46466198 8.78895912,9.59855513 C9.01592179,9.73233099 9.22986713,9.83295609 9.43075606,9.89957037 C9.63168408,9.96673195 9.81767932,10 9.98878087,10 L10,10 L10.0112582,10 C10.1823598,10 10.3684332,9.96669286 10.5693612,9.89957037 C10.770172,9.83295609 10.9843128,9.73221371 11.21108,9.59855513 C11.4379645,9.46450561 11.631387,9.34366949 11.7913867,9.2358904 C11.9513864,9.12803312 12.152158,8.98663414 12.3940535,8.81165437 C12.6357926,8.63663551 12.7940331,8.52334432 12.8684234,8.47115531 C13.5528296,7.99504302 15.2940625,6.78586088 18.0915747,4.84372618 C18.6347058,4.46440788 19.0884748,4.00670834 19.4529989,3.4709403 C19.8177966,2.93540682 20,2.37360292 20,1.78584134 C20,1.29467829 19.8231912,0.874234268 19.4697298,0.524548379 C19.1163076,0.174784305 18.6977206,0 18.2142424,0 L1.78564029,0 C1.21276088,0 0.771891968,0.193431613 0.463111726,0.580294839 C0.154370575,0.96723625 0,1.45089347 0,2.0312274 C0,2.5 0.204680763,3.00796322 0.613846833,3.55483364 C1.02297381,4.10174315 1.45836998,4.53149128 1.91960534,4.84396074 Z" id="Path"></path>
                <path d="M18.8837571,6.09181561 C16.4435419,7.7512646 14.5906295,9.04093034 13.3259191,9.9605379 C12.9018211,10.2743922 12.5577814,10.5193957 12.2935654,10.6949593 C12.0293495,10.8706407 11.6779607,11.0500533 11.2388908,11.2331186 C10.7999773,11.4164588 10.3909293,11.507854 10.011395,11.507854 L10.0000195,11.507854 L9.98880043,11.507854 C9.60934431,11.507854 9.20006176,11.4164588 8.76114826,11.2331186 C8.32223475,11.0500533 7.9706114,10.8706407 7.70647366,10.6949593 C7.4424141,10.5193957 7.09825713,10.2743922 6.6741982,9.9605379 C5.66967732,9.22050008 3.82075223,7.93075578 1.12734473,6.09181561 C0.703129428,5.8079289 0.327386944,5.48252749 0,5.11627907 L0,14.0195523 C0,14.5132512 0.174775764,14.9354286 0.524522748,15.2867914 C0.87419155,15.6382721 1.29465411,15.8139535 1.78575407,15.8139535 L18.2143632,15.8139535 C18.7053459,15.8139535 19.1257694,15.6382721 19.4754773,15.2867914 C19.8253024,14.9353108 20,14.5132905 20,14.0195523 L20,5.11627907 C19.6800013,5.47494723 19.3080897,5.80034863 18.8837571,6.09181561 Z" id="Path"></path>
            </g>
        </g>
    </g>
</svg>