<?xml version="1.0" encoding="UTF-8"?>
<svg width="27px" height="29px" viewBox="0 0 27 29" version="1.1" xmlns="http://www.w3.org/2000/svg" xmlns:xlink="http://www.w3.org/1999/xlink">
    <!-- Generator: sketchtool 55.2 (78181) - https://sketchapp.com -->
    <title>B007B9ED-5F0B-4DC6-A559-3B107BA24CF9</title>
    <desc>Created with sketchtool.</desc>
    <defs>
        <rect id="path-1" x="0" y="0" width="40" height="38.5714286"></rect>
    </defs>
    <g id="Page-1" stroke="none" stroke-width="1" fill="none" fill-rule="evenodd">
        <g id="AboutMe" transform="translate(-569.000000, -972.000000)">
            <g id="Hobbies/Interests" transform="translate(398.000000, 916.000000)">
                <g id="musicImage" transform="translate(163.500000, 53.000000)">
                    <g transform="translate(1.000000, 0.000000)">
                        <mask id="mask-2" fill="white">
                            <use xlink:href="#path-1"></use>
                        </mask>
                        <g id="Mask"></g>
                        <g id="noun_Headphones_342138" mask="url(#mask-2)" fill="#000000" fill-rule="nonzero">
                            <g transform="translate(7.142857, 2.857143)" id="Path">
                                <path d="M24.4839571,6.96603728 C21.2716417,1.9947644 16.637255,0.434709821 13.2142857,0.434709821 C9.79131638,0.434709821 5.15724409,1.9947644 1.94492869,6.96603728 C-1.2673867,11.9373102 0.654594704,18.2567783 0.812427956,18.7060715 C1.44438978,20.4511478 1.41797943,21.4030936 1.41797943,21.6149529 C1.41797943,21.8264964 1.5233064,22.2757896 1.5233064,22.2757896 C1.5233064,22.2757896 4.34072426,27.7228776 4.5513782,28.0667147 C4.76203214,28.4102362 5.10410899,28.6220954 5.47291059,28.7805952 C5.84139778,28.9394107 5.94703916,28.7805952 5.94703916,28.7805952 C6.28943042,28.701661 6.18378904,28.331302 6.15737869,27.8554869 C6.15203374,27.7617132 6.13474126,27.658783 6.11178941,27.553327 L6.65603116,28.6224112 C6.65603116,28.6224112 6.68369914,28.8513202 7.10532143,28.8513202 C7.52662931,28.8513202 8.57989901,28.8513202 8.57989901,28.8513202 C8.57989901,28.8513202 8.00044347,26.8504973 6.15737869,23.4926385 C4.31431392,20.134464 3.26104421,18.706703 3.26104421,18.706703 L2.99788399,19.0240183 C2.99788399,19.0240183 2.81364039,19.1828338 2.81364039,19.6056051 C2.81364039,20.0286922 2.7004532,20.851186 2.7004532,20.8515018 C2.56117007,20.5831257 2.45301342,20.3700035 2.39233251,20.2402357 C-0.319758374,14.6870603 1.78678103,9.58380949 2.41874286,8.36727634 C5.86812254,2.15326417 13.2142857,2.62939498 13.2142857,2.62939498 C13.2142857,2.62939498 20.5604489,2.15326417 24.0098286,8.36727634 C24.6417904,9.58380949 26.7483298,14.6870603 24.0362389,20.2402357 C23.975558,20.3696877 23.8674014,20.5831257 23.7281182,20.8515018 C23.7281182,20.851186 23.6152454,20.0286922 23.6152454,19.6056051 C23.6152454,19.1828338 23.4310018,19.0240183 23.4310018,19.0240183 L23.1675272,18.706703 C23.1675272,18.706703 22.1142575,20.134464 20.2711927,23.4926385 C18.4278135,26.8501816 17.848358,28.8510045 17.848358,28.8510045 C17.848358,28.8510045 18.9019421,28.8510045 19.3229356,28.8510045 C19.7439291,28.8510045 19.7719115,28.6220954 19.7719115,28.6220954 L20.3161532,27.5530113 C20.2932014,27.6584673 20.2759089,27.7613974 20.2705639,27.8551712 C20.2441536,28.3309863 20.1388266,28.7013453 20.4809034,28.7802795 C20.4809034,28.7802795 20.5865448,28.939095 20.955032,28.7802795 C21.3238336,28.6217797 21.6662249,28.4099204 21.8768788,28.066399 C22.0875328,27.7225618 24.9049506,22.2754739 24.9049506,22.2754739 C24.9049506,22.2754739 25.0102776,21.8261807 25.0102776,21.6146372 C25.0102776,21.4027779 24.9838672,20.450832 25.6161435,18.7057558 C25.7739767,18.2567783 27.6962725,11.9373102 24.4839571,6.96603728 Z"></path>
                                <path d="M22.5484562,18.3120323 C22.5484562,18.3120323 21.9429047,17.3600864 21.1006033,17.3600864 C20.8371287,17.2805208 20.3636289,17.3073584 20.073744,17.6774017 C19.783859,18.047445 15.4390429,24.7900002 15.2547993,26.8523917 C15.2812096,27.2492727 15.3252268,27.4772345 15.4654532,27.6458378 C15.6927708,27.91895 16.2294667,28.4923277 17.1503703,28.5715776 C17.7037299,27.2230665 18.9673392,24.3839629 19.7571342,22.9476771 C20.5475581,21.5113913 22.5484562,18.3120323 22.5484562,18.3120323 Z"></path>
                                <path d="M5.32828251,17.3600864 C4.48566675,17.3600864 3.88011527,18.3120323 3.88011527,18.3120323 C3.88011527,18.3120323 5.8810133,21.5113913 6.67112278,22.9476771 C7.46091786,24.3839629 8.7248415,27.2227508 9.2778867,28.5715776 C10.1994191,28.4923277 10.7358006,27.9192657 10.9631182,27.6458378 C11.1033446,27.4772345 11.1473618,27.2492727 11.1737722,26.8523917 C10.9895286,24.7900002 6.64502685,18.047445 6.35514187,17.6774017 C6.0652569,17.3073584 5.59144273,17.2805208 5.32828251,17.3600864 Z"></path>
                            </g>
                        </g>
                    </g>
                </g>
            </g>
        </g>
    </g>
</svg>