<?xml version="1.0" encoding="UTF-8"?>
<svg width="25px" height="27px" viewBox="0 0 25 27" version="1.1" xmlns="http://www.w3.org/2000/svg" xmlns:xlink="http://www.w3.org/1999/xlink">
    <!-- Generator: sketchtool 55.2 (78181) - https://sketchapp.com -->
    <title>F7354FB8-F8B4-46D2-8B52-43F38BE7388B</title>
    <desc>Created with sketchtool.</desc>
    <defs>
        <rect id="path-1" x="0" y="0" width="40" height="39"></rect>
    </defs>
    <g id="Page-1" stroke="none" stroke-width="1" fill="none" fill-rule="evenodd">
        <g id="AboutMe" transform="translate(-746.000000, -975.000000)">
            <g id="Hobbies/Interests" transform="translate(398.000000, 916.000000)">
                <g id="politicsImage" transform="translate(336.000000, 53.000000)">
                    <g transform="translate(5.000000, 0.000000)">
                        <mask id="mask-2" fill="white">
                            <use xlink:href="#path-1"></use>
                        </mask>
                        <g id="Mask"></g>
                        <g id="noun_crowd_1623640" mask="url(#mask-2)" fill="#000000" fill-rule="nonzero">
                            <g transform="translate(7.857143, 6.500000)" id="Path">
                                <path d="M4.92567092,9.77300005 C4.24663699,9.28967391 3.78659005,8.36866404 3.78659005,7.31042462 C3.78659005,7.08614194 3.80953431,6.86911369 3.84845242,6.6599444 C4.52167768,6.52785339 5.30701033,6.33863377 5.97820255,5.76341822 C6.18092526,4.7988818 6.67785727,3.93953456 7.38477283,3.25217768 C6.96771008,3.05993538 6.48936582,2.95051445 5.98052602,2.95051445 L5.97123214,2.94053962 C4.35554962,2.94053962 3.14037513,4.0413988 3.14037513,5.39948784 C3.01868342,7.6837253 2.35388074,7.58186107 2.2949227,9.05783454 C2.26733151,9.75456172 2.49648367,10.1481143 2.93445765,10.3705834 C3.39624719,10.5020699 3.88562793,10.6039341 4.39562946,10.673758 C4.61897296,10.4210621 4.79061926,10.1109354 4.92567092,9.77300005 Z"></path>
                                <path d="M4.30443329,13.5135636 C4.32621582,12.9670635 4.39098253,12.5281707 4.48014566,12.1461042 C3.27223202,11.8767837 2.56125038,11.3792509 2.56125038,11.3792509 C1.51104222,11.6437352 0.730356505,11.6325513 0.906940179,15.5351304 C0.906940179,15.5351304 3.03204337,15.8561387 5.04852436,15.9453077 C4.51035077,15.3731148 4.26232041,14.5721053 4.30443329,13.5135636 Z"></path>
                                <path d="M21.1551046,11.3792509 C21.1551046,11.3792509 20.3456659,11.9438871 18.9890503,12.1953739 C19.0721143,12.5659542 19.1316532,12.9912449 19.152274,13.5135636 C19.1946773,14.5790574 18.9402574,15.3833919 18.3936612,15.9561893 C20.4862358,15.8854587 22.8097052,15.5348281 22.8097052,15.5348281 C22.9859985,11.6328536 22.2053128,11.6437352 21.1551046,11.3792509 Z"></path>
                                <path d="M20.5611677,5.97893514 C20.5870163,5.76704544 20.5977624,5.58326664 20.5977624,5.40946268 C20.5977624,4.05137363 19.2864543,2.95051445 17.6707718,2.95051445 L17.6611875,2.94053962 C17.1058783,2.94053962 16.5999429,3.0729329 16.1721341,3.29902918 C16.9008321,3.98850194 17.4180945,4.8448265 17.6298207,5.79515634 C17.8110513,5.64462699 17.9853115,5.46840489 18.1462117,5.25651519 C18.578377,6.01943902 19.2713518,6.89782913 19.9227945,7.21339667 C19.9236658,7.24604158 19.9268606,7.2777797 19.9268606,7.31042462 C19.9268606,8.37803434 19.4592624,9.3066009 18.7700633,9.7866021 C18.917894,10.1197012 19.0965107,10.4240848 19.3154977,10.6743625 C19.7743829,10.6111886 20.216423,10.5220196 20.6369709,10.4089714 C21.1289656,10.1949658 21.3889037,9.79687921 21.3595699,9.05783454 C21.3064205,7.7193929 20.754887,7.67828448 20.5611677,5.97893514 Z"></path>
                                <path d="M17.0904853,7.82427981 C17.1381165,7.43102945 17.1578659,7.09037369 17.1578659,6.76724945 C17.1578659,4.24694087 14.7240318,2.20330855 11.7253041,2.20330855 L11.7078781,2.18487022 C8.70915038,2.18487022 6.45364247,4.22820027 6.45364247,6.74881112 C6.22797551,10.9884187 4.9936324,10.7995014 4.88471977,13.5386518 C4.83331301,14.8317533 5.25879834,15.5623345 6.07172219,15.9755345 C6.9290824,16.2197668 7.83755893,16.4086842 8.78379184,16.538357 C9.19765982,16.0689352 9.51626556,15.4934174 9.76720026,14.8662118 C8.50671811,13.9690811 7.65313355,12.2600592 7.65313355,10.295621 C7.65313355,9.87939831 7.69553686,9.47647538 7.76814528,9.08836358 C9.32922628,8.78246861 11.2164643,8.31274451 12.6082224,6.48342003 C13.4106907,7.89984675 14.6961501,9.52967451 15.9055159,10.1154694 C15.9072585,10.175923 15.9127768,10.2348652 15.9127768,10.295621 C15.9127768,12.2772884 15.044961,14.0011215 13.7656006,14.8916023 C14.0400605,15.5097399 14.3717357,16.0749806 14.7774716,16.5392639 C15.629604,16.421984 16.4497886,16.256039 17.2301839,16.0465674 C18.1435978,15.6496898 18.6262986,14.9106452 18.5716971,13.5386518 C18.4732401,11.0546154 17.4494614,10.9784439 17.0904853,7.82427981 Z"></path>
                                <path d="M18.1926811,17.847781 C18.1926811,17.847781 15.7178958,19.584007 11.7828099,19.584007 C7.84714324,19.584007 5.37874745,17.847781 5.37874745,17.847781 C3.42964707,18.3383616 1.98067347,18.3184119 2.30799222,25.5610497 C2.30799222,25.5610497 7.63628839,26.366291 11.7828099,26.366291 C15.9293315,26.366291 21.2640172,25.5610497 21.2640172,25.5610497 C21.5910455,18.3184119 20.1417815,18.3383616 18.1926811,17.847781 Z"></path>
                                <path d="M2.10846429,7.41440473 C2.28911403,6.99727522 2.47382985,6.55928923 2.54643827,5.56241016 C1.60630446,5.44361893 1.0364736,5.04492776 1.0364736,5.04492776 C0.417269005,5.20089792 -0.0430683673,5.19424803 0.0609068878,7.49511022 C0.0609068878,7.49511022 0.977515561,7.63324658 1.98619171,7.70639538 C2.02598112,7.60604249 2.0672227,7.50961907 2.10846429,7.41440473 Z"></path>
                                <path d="M2.43055523,4.09792287 C2.03004719,3.81288437 1.75907258,3.27001148 1.75907258,2.64582855 C1.75907258,2.51343527 1.77243253,2.38557601 1.79566722,2.26225077 C2.29172793,2.16492055 2.89118304,2.01590254 3.33322309,1.43464164 C3.58822385,1.88471833 3.9965736,2.40250301 4.38052691,2.58839768 C4.38110778,2.60774281 4.38285038,2.62648342 4.38285038,2.64552628 C4.38285038,2.65701246 4.38110778,2.6678941 4.38110778,2.67938027 C4.54200804,2.60472014 4.71075,2.54215071 4.88588151,2.49076519 C4.83447474,2.3284474 4.78800536,2.13076429 4.75721939,1.86053691 C4.77232194,1.73539806 4.77842105,1.62748847 4.77842105,1.52471743 C4.77842105,0.724010137 4.00528661,0.0747389891 3.05266416,0.0747389891 L3.04714592,0.0686936339 C2.09452347,0.0686936339 1.37773316,0.717662514 1.37773316,1.51867208 C1.30599605,2.86557721 0.913910587,2.80542593 0.87934898,3.67565481 C0.863084694,4.08643669 0.998426786,4.31857833 1.25662232,4.44976254 C1.52904911,4.52744536 1.81744974,4.58759664 2.1180486,4.62870505 C2.24961505,4.47998932 2.3509764,4.29711732 2.43055523,4.09792287 Z"></path>
                                <path d="M8.86220893,0.0750412568 L8.85669069,0.0689959016 C7.90406824,0.0689959016 7.18727793,0.717964781 7.18727793,1.51897434 C7.16317194,1.97267825 7.1024713,2.26527344 7.03131505,2.48895158 C7.21661173,2.5394303 7.39726148,2.60230199 7.57006952,2.67907801 C7.56977908,2.66759183 7.56832691,2.65701246 7.56832691,2.64552628 C7.56832691,2.51313301 7.58168686,2.38527374 7.60492156,2.2619485 C8.10098227,2.16461828 8.70043737,2.01560027 9.14276786,1.43433937 C9.2397727,1.60572519 9.35943138,1.78708585 9.49128827,1.95605352 C9.83893737,1.83272828 10.2040125,1.7378162 10.5833189,1.67464224 C10.5865136,1.62295445 10.5882562,1.57308027 10.5882562,1.52471743 C10.5879658,0.724010137 9.81483138,0.0750412568 8.86220893,0.0750412568 Z"></path>
                                <path d="M15.9987452,2.58839768 C15.999326,2.60774281 16.0010686,2.62648342 16.0010686,2.64552628 C16.0010686,2.67091678 15.9978739,2.69540046 15.9970026,2.72048869 C16.1619689,2.63917866 16.3344865,2.57237749 16.5122319,2.51676022 C16.4573399,2.34990842 16.4076758,2.14557541 16.3751472,1.86083918 C16.3902497,1.73570033 16.3966393,1.62779074 16.3966393,1.5250197 C16.3966393,0.724312404 15.6235048,0.0750412568 14.6703015,0.0750412568 L14.6647833,0.0689959016 C13.7121608,0.0689959016 12.995661,0.717964781 12.995661,1.51897434 C12.9918853,1.58940273 12.986948,1.65408803 12.9814297,1.71726199 C13.3921029,1.79282893 13.787964,1.90164533 14.1632043,2.04552478 C14.4437633,1.92340861 14.7190944,1.73932754 14.9511509,1.43464164 C15.2061517,1.88471833 15.6147918,2.40250301 15.9987452,2.58839768 Z"></path>
                                <path d="M22.1849824,1.86053691 C22.2000849,1.73539806 22.2064745,1.62748847 22.2064745,1.52471743 C22.2064745,0.724010137 21.4333401,0.0747389891 20.4804272,0.0747389891 L20.4749089,0.0686936339 C19.5222865,0.0686936339 18.8057866,0.717662514 18.8057866,1.51867208 C18.7822615,1.96028527 18.7241747,2.24955552 18.655342,2.47081552 C18.838896,2.51796929 19.0169319,2.57570243 19.1865452,2.64703762 C19.1865452,2.64643309 19.1865452,2.64582855 19.1865452,2.64522402 C19.1865452,2.51283074 19.1999051,2.38497148 19.2231398,2.26164623 C19.7189101,2.16431601 20.3183652,2.01529801 20.7609861,1.4340371 C21.0156964,1.8841138 21.4240462,2.40189847 21.8079995,2.58779314 C21.8085804,2.60713828 21.810323,2.62587888 21.810323,2.64492175 C21.810323,3.27454549 21.5347014,3.82225467 21.1283847,4.1051773 C21.2158052,4.30165134 21.3206518,4.48119839 21.4498948,4.62870505 C21.720579,4.59152612 21.9808075,4.53893153 22.2288379,4.47213036 C22.5192716,4.3460847 22.6723301,4.11122265 22.6554849,3.67535254 C22.6241181,2.88673596 22.2988324,2.86255454 22.1849824,1.86053691 Z"></path>
                                <path d="M22.534955,5.04492776 C22.534955,5.04492776 22.0252439,5.40160372 21.1748541,5.54125142 C21.170788,5.68271273 21.1629463,5.82628992 21.1461011,5.97802833 C21.2349739,6.69470519 21.3932602,7.06014691 21.5463187,7.41380019 C21.586689,7.50720093 21.6270593,7.60181074 21.6662679,7.70035003 C22.642125,7.62568989 23.5105217,7.49511022 23.5105217,7.49511022 C23.6147874,5.1945503 23.15445,5.20089792 22.534955,5.04492776 Z"></path>
                            </g>
                        </g>
                    </g>
                </g>
            </g>
        </g>
    </g>
</svg>