<?xml version="1.0" encoding="UTF-8"?>
<svg width="26px" height="29px" viewBox="0 0 26 29" version="1.1" xmlns="http://www.w3.org/2000/svg" xmlns:xlink="http://www.w3.org/1999/xlink">
    <!-- Generator: sketchtool 55.2 (78181) - https://sketchapp.com -->
    <title>E2CA64C2-7311-4094-963E-AFC4F3B8EEDF</title>
    <desc>Created with sketchtool.</desc>
    <defs>
        <rect id="path-1" x="0" y="0" width="40" height="39"></rect>
    </defs>
    <g id="Page-1" stroke="none" stroke-width="1" fill="none" fill-rule="evenodd">
        <g id="AboutMe" transform="translate(-656.000000, -974.000000)">
            <g id="Hobbies/Interests" transform="translate(398.000000, 916.000000)">
                <g id="techImage" transform="translate(237.750000, 53.000000)">
                    <g transform="translate(13.000000, 0.000000)">
                        <mask id="mask-2" fill="white">
                            <use xlink:href="#path-1"></use>
                        </mask>
                        <g id="Mask"></g>
                        <g id="noun_Artificial-Intelligence_2217293" mask="url(#mask-2)" fill="#000000" fill-rule="nonzero">
                            <g transform="translate(7.142857, 5.777778)" id="Shape">
                                <path d="M4.93009217,18.8537424 L6.18926267,17.5580758 L7.16225806,18.5592727 L10.1384793,18.5592727 L10.1384793,5.07256061 C11.0828571,4.71919697 11.7696774,3.77689394 11.7696774,2.65790909 C11.7696774,1.24445455 10.6535945,0.0960227273 9.27995392,0.0960227273 C7.90631336,0.0960227273 6.79023041,1.24445455 6.79023041,2.65790909 C6.79023041,3.74744697 7.47705069,4.68975 8.42142857,5.07256061 L8.42142857,16.8219015 L7.87769585,16.8219015 L3.67092166,12.46375 L3.67092166,10.4024621 C4.61529954,10.0490985 5.30211982,9.10679545 5.30211982,7.98781061 C5.30211982,6.57435606 4.18603687,5.42592424 2.81239631,5.42592424 C1.43875576,5.42592424 0.322672811,6.57435606 0.322672811,7.98781061 C0.322672811,9.07734848 1.00949309,10.0196515 1.95387097,10.4024621 L1.95387097,13.1999242 L4.98732719,16.321303 L3.58506912,17.7642045 C3.32751152,17.6758636 3.06995392,17.6169697 2.7837788,17.6169697 C1.41013825,17.6169697 0.2940553,18.7654015 0.2940553,20.1788561 C0.2940553,21.5923106 1.41013825,22.7407424 2.7837788,22.7407424 C4.15741935,22.7407424 5.2735023,21.5923106 5.2735023,20.1788561 C5.30211982,19.7077045 5.15903226,19.236553 4.93009217,18.8537424 Z M9.30857143,1.86284091 C9.7378341,1.86284091 10.0812442,2.21620455 10.0812442,2.65790909 C10.0812442,3.09961364 9.7378341,3.45297727 9.30857143,3.45297727 C8.87930876,3.45297727 8.53589862,3.09961364 8.53589862,2.65790909 C8.53589862,2.21620455 8.87930876,1.86284091 9.30857143,1.86284091 Z M2.81239631,7.19274242 C3.24165899,7.19274242 3.58506912,7.54610606 3.58506912,7.98781061 C3.58506912,8.42951515 3.24165899,8.78287879 2.81239631,8.78287879 C2.38313364,8.78287879 2.0397235,8.42951515 2.0397235,7.98781061 C2.0397235,7.54610606 2.38313364,7.19274242 2.81239631,7.19274242 Z M2.81239631,20.9739242 C2.38313364,20.9739242 2.0397235,20.6205606 2.0397235,20.1788561 C2.0397235,19.7371515 2.38313364,19.3837879 2.81239631,19.3837879 C3.24165899,19.3837879 3.58506912,19.7371515 3.58506912,20.1788561 C3.58506912,20.6205606 3.24165899,20.9739242 2.81239631,20.9739242 Z M15.8333641,4.33638636 C16.1767742,5.30813636 17.0925346,6.01486364 18.18,6.01486364 C19.5536406,6.01486364 20.6697235,4.86643182 20.6697235,3.45297727 C20.6697235,2.03952273 19.5536406,0.891090909 18.18,0.891090909 C17.1211521,0.891090909 16.2053917,1.59781818 15.8333641,2.56956818 L14.3452535,2.56956818 L11.9986175,4.95477273 L11.9986175,22.4757197 L10.682212,23.8302803 L9.90953917,23.8302803 C9.56612903,22.8585303 8.65036866,22.151803 7.56290323,22.151803 C6.18926267,22.151803 5.07317972,23.3002348 5.07317972,24.7136894 C5.07317972,26.1271439 6.18926267,27.2755758 7.56290323,27.2755758 C8.62175115,27.2755758 9.53751152,26.5688485 9.90953917,25.5970985 L11.3976498,25.5970985 L13.7156682,23.2118939 L13.7156682,5.69094697 L15.0320737,4.33638636 L15.8333641,4.33638636 Z M18.1513825,2.65790909 C18.5806452,2.65790909 18.9240553,3.01127273 18.9240553,3.45297727 C18.9240553,3.89468182 18.5806452,4.24804545 18.1513825,4.24804545 C17.7221198,4.24804545 17.3787097,3.89468182 17.3787097,3.45297727 C17.3787097,3.01127273 17.7221198,2.65790909 18.1513825,2.65790909 Z M7.56290323,25.5087576 C7.13364055,25.5087576 6.79023041,25.1553939 6.79023041,24.7136894 C6.79023041,24.2719848 7.13364055,23.9186212 7.56290323,23.9186212 C7.9921659,23.9186212 8.33557604,24.2719848 8.33557604,24.7136894 C8.33557604,25.1553939 7.9921659,25.5087576 7.56290323,25.5087576 Z M23.7604147,17.7642045 L23.7604147,14.9667424 L20.5552535,11.6686818 L21.871659,10.3141212 C22.1864516,10.4613561 22.5298618,10.549697 22.9305069,10.549697 C24.3041475,10.549697 25.4202304,9.40126515 25.4202304,7.98781061 C25.4202304,6.57435606 24.3041475,5.42592424 22.9305069,5.42592424 C21.5568664,5.42592424 20.4407834,6.57435606 20.4407834,7.98781061 C20.4407834,8.37062121 20.5266359,8.72398485 20.6697235,9.07734848 L19.353318,10.4319091 L18.5520276,9.60739394 L15.5471889,9.60739394 L15.5471889,23.123553 C14.6028111,23.4769167 13.9159908,24.4192197 13.9159908,25.5382045 C13.9159908,26.9516591 15.0320737,28.1000909 16.4057143,28.1000909 C17.7793548,28.1000909 18.8954378,26.9516591 18.8954378,25.5382045 C18.8954378,24.4486667 18.2086175,23.5063636 17.2642396,23.123553 L17.2642396,11.3447652 L17.8079724,11.3447652 L22.0433641,15.7029167 L22.0433641,17.7642045 C21.0989862,18.1175682 20.4121659,19.0598712 20.4121659,20.1788561 C20.4121659,21.5923106 21.5282488,22.7407424 22.9018894,22.7407424 C24.27553,22.7407424 25.3916129,21.5923106 25.3916129,20.1788561 C25.3916129,19.0893182 24.7047926,18.1470152 23.7604147,17.7642045 Z M22.9018894,7.19274242 C23.3311521,7.19274242 23.6745622,7.54610606 23.6745622,7.98781061 C23.6745622,8.42951515 23.3311521,8.78287879 22.9018894,8.78287879 C22.4726267,8.78287879 22.1292166,8.42951515 22.1292166,7.98781061 C22.1292166,7.54610606 22.4726267,7.19274242 22.9018894,7.19274242 Z M16.4057143,26.3038258 C15.9764516,26.3038258 15.6330415,25.9504621 15.6330415,25.5087576 C15.6330415,25.067053 15.9764516,24.7136894 16.4057143,24.7136894 C16.834977,24.7136894 17.1783871,25.067053 17.1783871,25.5087576 C17.1783871,25.9504621 16.834977,26.3038258 16.4057143,26.3038258 Z M22.9018894,20.9739242 C22.4726267,20.9739242 22.1292166,20.6205606 22.1292166,20.1788561 C22.1292166,19.7371515 22.4726267,19.3837879 22.9018894,19.3837879 C23.3311521,19.3837879 23.6745622,19.7371515 23.6745622,20.1788561 C23.6745622,20.6205606 23.3311521,20.9739242 22.9018894,20.9739242 Z"></path>
                            </g>
                        </g>
                    </g>
                </g>
            </g>
        </g>
    </g>
</svg>