<?xml version="1.0" encoding="UTF-8"?>
<svg width="31px" height="28px" viewBox="0 0 31 28" version="1.1" xmlns="http://www.w3.org/2000/svg" xmlns:xlink="http://www.w3.org/1999/xlink">
    <!-- Generator: sketchtool 55.2 (78181) - https://sketchapp.com -->
    <title>12C69DBF-7509-4FA1-ABE9-DDF5DEB17187</title>
    <desc>Created with sketchtool.</desc>
    <defs>
        <rect id="path-1" x="0" y="0" width="40" height="38.5714286"></rect>
    </defs>
    <g id="Page-1" stroke="none" stroke-width="1" fill="none" fill-rule="evenodd">
        <g id="AboutMe" transform="translate(-412.000000, -974.000000)">
            <g id="Hobbies/Interests" transform="translate(398.000000, 916.000000)">
                <g id="travelingImage" transform="translate(0.000000, 53.000000)">
                    <g transform="translate(10.000000, 0.000000)">
                        <mask id="mask-2" fill="white">
                            <use xlink:href="#path-1"></use>
                        </mask>
                        <g id="Mask"></g>
                        <g id="noun_Vacation_1764424" mask="url(#mask-2)" fill="#000000" fill-rule="nonzero">
                            <g transform="translate(4.285714, 5.000000)" id="Path">
                                <path d="M6.64820312,7.76445813 C5.35676339,9.85230296 5.32364955,12.2384113 6.38329241,12.9675 C6.44952009,13.0006404 6.51574777,13.0669212 6.58197545,13.1000616 C7.0455692,11.4099015 7.70784598,9.81916256 8.63503348,8.4935468 C8.734375,8.39412562 8.80060268,8.29470443 8.8999442,8.16214286 L9.09862723,8.36098522 C8.96617187,13.2657635 7.9727567,18.3031034 6.81377232,23.307303 C7.70784598,23.0421798 8.70126116,22.8764778 9.76090402,22.7770567 C9.46287946,18.8002094 9.6615625,13.4646059 10.2576116,8.4604064 C10.9198884,9.95172414 11.4828237,11.7744458 11.9795312,13.7297291 C12.7411496,12.8349384 12.5755804,10.5813916 11.5490513,8.19528325 C13.1385156,8.79181034 14.8604353,9.71974138 16.7148103,10.8133744 C16.6485826,9.95172414 15.7213951,8.92437192 14.2312723,8.02958128 C15.125346,8.36098522 16.0194196,8.75866995 16.9134933,9.22263547 C16.9466071,9.15635468 16.979721,9.0569335 16.979721,8.99065271 C17.2115179,7.73131773 15.5227121,6.10743842 13.2378571,5.57719212 C14.4630692,5.1132266 15.8207366,4.68240148 17.2777455,4.25157635 C16.5161272,3.62190887 14.7610937,3.65504926 12.7742634,4.35099754 C13.6021094,3.62190887 14.5624107,2.95910099 15.5558259,2.39571429 C15.4895982,2.3294335 15.4564844,2.26315271 15.3902567,2.23001232 C14.3968415,1.33522167 11.9133036,2.03116995 10.2244978,3.95331281 L9.95958705,3.32364532 C8.83371652,0.97067734 6.61508929,-0.288657635 5.42299107,0.307869458 C5.35676339,0.341009852 5.29053571,0.374150246 5.22430804,0.440431034 C6.51574777,1.69976601 7.60850446,3.09166256 8.33700893,4.5829803 L8.13832589,4.68240148 C7.57539062,4.38413793 6.91311384,4.08587438 6.25083705,3.85389163 C3.53550223,2.92596059 0.985736607,2.95910099 0.124776786,3.88703202 C3.0056808,4.28471675 5.55544643,4.81496305 7.40982143,5.70975369 L5.38987723,6.8033867 C2.57520089,8.4935468 0.952622768,11.1116379 1.64801339,12.2715517 C1.68112723,12.3378325 1.74735491,12.4041133 1.81358259,12.4703941 C3.10502232,10.3825493 4.76071429,8.75866995 6.64820312,7.76445813 Z"></path>
                                <path d="M20.8540402,26.256798 C19.8937388,26.1242365 18.9996652,25.7265517 18.2380469,25.1300246 C17.7082254,24.6991995 17.0459487,24.3346552 16.3174442,24.0363916 C16.0856473,23.9369704 15.8538504,23.8375493 15.6220536,23.7712685 C14.2975,23.3404433 12.7411496,23.0753202 11.0854576,23.0753202 C10.6549777,23.0753202 10.2244978,23.1084606 9.8271317,23.141601 C8.734375,23.2410222 7.67473214,23.4398645 6.74754464,23.7381281 C4.19777902,24.5334975 2.47585937,26.0248153 2.47585937,27.7481158 L5.7872433,27.7481158 L10.7543192,27.7481158 L12.7411496,27.7481158 L19.6950558,27.7481158 L30.6226228,27.7481158 L20.8540402,26.256798 Z"></path>
                                <path d="M10.0920424,17.0769089 L11.2179129,16.7455049 C11.5159375,16.6460837 11.8139621,16.6460837 12.1119866,16.7455049 L12.8404911,16.9443473 C13.1385156,17.0437685 13.4365402,17.0437685 13.7014509,16.9443473 L14.4630692,16.7123645 C14.7279799,16.6460837 15.0260045,16.6129433 15.2909152,16.7123645 L15.6220536,16.8117857 L15.6220536,23.4067241 C15.8538504,23.4730049 16.0856473,23.5724261 16.3174442,23.6718473 L16.3174442,16.9774877 C16.5823549,17.0437685 16.8472656,17.0106281 17.1121763,16.9112069 L17.5095424,16.7786453 C17.8406808,16.6792241 18.1718192,16.6460837 18.5029576,16.7786453 L18.9003237,16.9112069 C19.2645759,17.0106281 19.6288281,17.0106281 19.9930804,16.8780665 C20.3573326,16.7123645 20.7546987,16.7123645 21.1189509,16.8449261 L21.8474554,17.1100493 C21.8474554,15.2873276 19.2314621,13.8291502 15.9863058,13.8291502 C12.7411496,13.8291502 10.0920424,15.2541872 10.0920424,17.0769089 Z"></path>
                            </g>
                        </g>
                    </g>
                </g>
            </g>
        </g>
    </g>
</svg>